# Blender v2.90.1 OBJ File: ''
# www.blender.org
mtllib CancelButton.mtl
o Cube.001
v -0.859486 0.300000 0.859486
v 0.858530 0.300000 0.859486
v 0.860692 0.300000 -0.831383
v -1.000000 -0.300000 0.859486
v -1.000000 0.159486 0.859486
v -1.000000 0.159486 -0.859486
v -1.000000 -0.300000 -0.859486
v 0.859486 -0.300000 1.000000
v 0.859486 0.159486 1.000000
v -0.859486 0.159486 1.000000
v -0.859486 -0.300000 1.000000
v -0.859486 0.300000 -0.832464
v 1.000000 -0.300000 -0.859486
v 1.000000 0.159486 -0.859486
v 1.000000 0.159486 0.859486
v 1.000000 -0.300000 0.859486
v -0.859486 -0.300000 -1.000000
v 0.859486 -0.300000 -1.000000
v 0.859486 0.159486 -1.000000
v -0.859486 0.159486 -1.000000
vt 0.375000 0.017564
vt 0.566453 0.017564
vt 0.566453 0.232436
vt 0.375000 0.232436
vt 0.375000 0.767564
vt 0.566453 0.767564
vt 0.566453 0.982436
vt 0.375000 0.982436
vt 0.375000 0.517564
vt 0.566453 0.517564
vt 0.566453 0.732436
vt 0.375000 0.732436
vt 0.125000 0.517564
vt 0.142564 0.500000
vt 0.357436 0.500000
vt 0.357436 0.750000
vt 0.142564 0.750000
vt 0.125000 0.732436
vt 0.566453 0.482436
vt 0.625000 0.489461
vt 0.566453 0.500000
vt 0.566453 0.750000
vt 0.625000 0.760809
vt 0.625000 0.767564
vt 0.566453 0.250000
vt 0.625000 0.232436
vt 0.625000 0.229058
vt 0.566453 0.000000
vt 0.625000 0.017564
vt 0.375000 0.482436
vt 0.375000 0.000000
vt 0.566453 0.267564
vt 0.375000 0.267564
vt 0.625000 0.982436
vt 0.635539 0.521077
vt 0.635809 0.732436
vt 0.625000 0.267564
vn -1.0000 -0.0000 0.0000
vn 0.0000 -0.0000 1.0000
vn 1.0000 0.0000 0.0000
vn 0.0000 -1.0000 -0.0000
vn 0.5408 0.6443 -0.5408
vn 0.5760 0.5800 0.5760
vn -0.5406 0.6446 -0.5406
vn -0.5774 0.5773 0.5774
vn 0.7071 0.0000 -0.7071
vn -0.7071 -0.0000 0.7071
vn 0.7071 -0.0000 0.7071
vn -0.7071 0.0000 -0.7071
vn 0.0000 0.7071 0.7071
vn 0.7074 0.7068 0.0004
vn -0.7071 0.7071 0.0000
vn 0.0002 0.7672 -0.6414
vn 0.0000 0.0000 -1.0000
vn -0.0000 1.0000 0.0000
usemtl Material.001
s off
f 4/1/1 5/2/1 6/3/1 7/4/1
f 8/5/2 9/6/2 10/7/2 11/8/2
f 13/9/3 14/10/3 15/11/3 16/12/3
f 7/13/4 17/14/4 18/15/4 13/9/4 16/12/4 8/16/4 11/17/4 4/18/4
f 19/19/5 3/20/5 14/21/5
f 15/22/6 2/23/6 9/24/6
f 20/25/7 6/26/7 12/27/7
f 5/2/8 10/28/8 1/29/8
f 14/10/9 13/9/9 18/30/9 19/19/9
f 11/31/10 10/28/10 5/2/10 4/1/10
f 9/6/11 8/5/11 16/12/11 15/11/11
f 20/32/12 17/33/12 7/4/12 6/3/12
f 2/23/13 1/34/13 10/7/13 9/6/13
f 3/35/14 2/36/14 15/11/14 14/10/14
f 1/29/15 12/27/15 6/3/15 5/2/15
f 12/37/16 3/20/16 19/19/16 20/32/16
f 17/33/17 20/32/17 19/19/17 18/30/17
f 1/29/18 2/36/18 3/20/18 12/27/18
o Cube.002_Cube
v 0.000000 0.173125 0.141421
v 0.000000 0.373125 0.141421
v -0.141421 0.173125 0.000000
v -0.141421 0.373125 0.000000
v 0.141421 0.173125 0.000000
v 0.141421 0.373125 0.000000
v 0.000000 0.173125 -0.141421
v 0.000000 0.373125 -0.141421
v -0.530330 0.173125 0.671751
v -0.530330 0.373125 0.671751
v -0.671751 0.373125 0.530330
v -0.671751 0.173125 0.530330
v -0.671751 0.173125 -0.530330
v -0.671751 0.373125 -0.530330
v -0.530330 0.373125 -0.671751
v -0.530330 0.173125 -0.671751
v 0.530330 0.173125 -0.671751
v 0.530330 0.373125 -0.671751
v 0.671751 0.373125 -0.530330
v 0.671751 0.173125 -0.530330
v 0.671751 0.173125 0.530330
v 0.671751 0.373125 0.530330
v 0.530330 0.373125 0.671751
v 0.530330 0.173125 0.671751
vt 0.125000 0.500000
vt 0.375000 0.500000
vt 0.375000 0.750000
vt 0.125000 0.750000
vt 0.625000 0.500000
vt 0.875000 0.500000
vt 0.875000 0.750000
vt 0.625000 0.750000
vt 0.375000 0.000000
vt 0.625000 0.000000
vt 0.625000 0.250000
vt 0.375000 0.250000
vt 0.625000 0.000000
vt 0.375000 0.000000
vt 0.625000 0.250000
vt 0.375000 0.250000
vt 0.375000 0.250000
vt 0.625000 0.250000
vt 0.625000 0.500000
vt 0.375000 0.500000
vt 0.375000 0.500000
vt 0.625000 0.500000
vt 0.625000 0.750000
vt 0.375000 0.750000
vt 0.375000 0.750000
vt 0.625000 0.750000
vt 0.625000 1.000000
vt 0.375000 1.000000
vt 0.625000 1.000000
vt 0.375000 1.000000
vn 0.0000 -1.0000 0.0000
vn 0.0000 1.0000 0.0000
vn -0.7071 0.0000 0.7071
vn 0.7071 0.0000 0.7071
vn -0.7071 0.0000 -0.7071
vn 0.7071 0.0000 -0.7071
usemtl None
s off
f 23/38/19 27/39/19 25/40/19 21/41/19
f 28/42/20 24/43/20 22/44/20 26/45/20
f 29/46/21 30/47/21 31/48/21 32/49/21
f 22/50/22 30/47/22 29/46/22 21/51/22
f 24/52/20 31/48/20 30/47/20 22/50/20
f 23/53/23 32/49/23 31/48/23 24/52/23
f 21/51/19 29/46/19 32/49/19 23/53/19
f 33/54/23 34/55/23 35/56/23 36/57/23
f 24/52/21 34/55/21 33/54/21 23/53/21
f 28/42/20 35/56/20 34/55/20 24/52/20
f 27/39/24 36/57/24 35/56/24 28/42/24
f 23/53/19 33/54/19 36/57/19 27/39/19
f 37/58/24 38/59/24 39/60/24 40/61/24
f 28/42/23 38/59/23 37/58/23 27/39/23
f 26/45/20 39/60/20 38/59/20 28/42/20
f 25/40/22 40/61/22 39/60/22 26/45/22
f 27/39/19 37/58/19 40/61/19 25/40/19
f 41/62/22 42/63/22 43/64/22 44/65/22
f 26/45/24 42/63/24 41/62/24 25/40/24
f 22/66/20 43/64/20 42/63/20 26/45/20
f 21/67/21 44/65/21 43/64/21 22/66/21
f 25/40/19 41/62/19 44/65/19 21/67/19
