# Blender v2.90.1 OBJ File: ''
# www.blender.org
mtllib DropIcon.mtl
o Cube.003_Cube.002
v -0.642836 -0.472775 0.800000
v -0.800000 -0.472775 0.642836
v -0.662156 -0.152775 0.585739
v -0.585739 -0.152775 0.662156
v -0.800000 -0.472775 -0.642836
v -0.642836 -0.472775 -0.800000
v -0.585739 -0.152775 -0.662156
v -0.662156 -0.152775 -0.585739
v 0.800000 -0.472775 0.642836
v 0.642836 -0.472775 0.800000
v 0.585739 -0.152775 0.662156
v 0.662156 -0.152775 0.585739
v 0.642836 -0.472775 -0.800000
v 0.800000 -0.472775 -0.642836
v 0.662156 -0.152775 -0.585739
v 0.585739 -0.152775 -0.662156
v -0.642836 -0.152775 0.800000
v -0.800000 -0.152775 0.642836
v -0.800000 -0.152775 -0.642836
v -0.642836 -0.152775 -0.800000
v 0.642836 -0.152775 -0.800000
v 0.800000 -0.152775 -0.642836
v 0.800000 -0.152775 0.642836
v 0.642836 -0.152775 0.800000
v -0.585739 -0.312471 0.662156
v -0.662156 -0.312471 0.585739
v -0.662156 -0.312471 -0.585739
v -0.585739 -0.312471 -0.662156
v 0.585739 -0.312471 -0.662156
v 0.662156 -0.312471 -0.585739
v 0.662156 -0.312471 0.585739
v 0.585739 -0.312471 0.662156
v -0.100000 -0.339656 -0.206226
v -0.100000 -0.139656 -0.206226
v -0.100000 -0.339656 -0.406226
v -0.100000 -0.139656 -0.406226
v 0.100000 -0.339656 -0.206226
v 0.100000 -0.139656 -0.206226
v 0.100000 -0.339656 -0.406226
v 0.100000 -0.139656 -0.406226
v -0.100000 -0.339656 0.226627
v -0.100000 -0.139656 0.226627
v 0.100000 -0.139656 0.226627
v 0.100000 -0.339656 0.226627
v -0.100000 -0.339656 0.424752
v -0.100000 -0.139656 0.424752
v 0.100000 -0.139656 0.424752
v 0.100000 -0.339656 0.424752
v -0.294775 -0.339656 -0.004157
v -0.294775 -0.139656 -0.004157
v 0.294775 -0.139656 -0.004157
v 0.294775 -0.339656 -0.004157
v -0.294775 -0.339656 0.193968
v -0.294775 -0.139656 0.193968
v 0.294775 -0.139656 0.193968
v 0.294775 -0.339656 0.193968
v 0.000000 -0.339656 -0.406226
v 0.000000 -0.139656 -0.406226
v 0.000000 -0.339656 -0.206226
v 0.000000 -0.139656 -0.206226
v 0.000000 -0.339656 0.226627
v 0.000000 -0.139656 0.226627
v 0.000000 -0.339656 0.505028
v 0.000000 -0.139656 0.505028
vt 0.375000 0.774557
vt 0.625000 0.774557
vt 0.625000 0.975443
vt 0.375000 0.975443
vt 0.375000 0.524557
vt 0.625000 0.524557
vt 0.625000 0.725443
vt 0.375000 0.725443
vt 0.841522 0.728462
vt 0.658478 0.728462
vt 0.658478 0.728462
vt 0.841522 0.728462
vt 0.375000 0.024557
vt 0.625000 0.024557
vt 0.625000 0.225443
vt 0.375000 0.225443
vt 0.375000 0.274557
vt 0.625000 0.274557
vt 0.625000 0.475443
vt 0.375000 0.475443
vt 0.375000 0.000000
vt 0.625000 0.000000
vt 0.125000 0.524557
vt 0.149557 0.500000
vt 0.350443 0.500000
vt 0.350443 0.750000
vt 0.149557 0.750000
vt 0.125000 0.725443
vt 0.853462 0.716522
vt 0.875000 0.725443
vt 0.850443 0.750000
vt 0.853462 0.533478
vt 0.841522 0.521538
vt 0.850443 0.500000
vt 0.875000 0.524557
vt 0.658478 0.521538
vt 0.646538 0.533478
vt 0.649557 0.500000
vt 0.646538 0.716522
vt 0.649557 0.750000
vt 0.646538 0.533478
vt 0.658478 0.521538
vt 0.841522 0.521538
vt 0.853462 0.533478
vt 0.853462 0.716522
vt 0.646538 0.716522
vt 0.375000 0.000000
vt 0.625000 0.000000
vt 0.625000 0.250000
vt 0.375000 0.250000
vt 0.375000 0.375000
vt 0.625000 0.375000
vt 0.625000 0.500000
vt 0.375000 0.500000
vt 0.625000 0.750000
vt 0.375000 0.750000
vt 0.250000 0.750000
vt 0.375000 0.750000
vt 0.250000 0.750000
vt 0.250000 0.500000
vt 0.750000 0.500000
vt 0.875000 0.500000
vt 0.875000 0.750000
vt 0.750000 0.750000
vt 0.750000 0.750000
vt 0.875000 0.750000
vt 0.875000 0.750000
vt 0.750000 0.750000
vt 0.625000 0.750000
vt 0.375000 0.000000
vt 0.625000 0.000000
vt 0.375000 0.875000
vt 0.625000 0.875000
vt 0.625000 1.000000
vt 0.375000 1.000000
vt 0.375000 0.750000
vt 0.375000 0.750000
vt 0.375000 0.750000
vt 0.250000 0.750000
vt 0.625000 0.750000
vt 0.625000 0.750000
vt 0.625000 0.750000
vt 0.625000 0.000000
vt 0.375000 0.000000
vt 0.375000 0.000000
vt 0.625000 0.000000
vt 0.875000 0.750000
vt 0.875000 0.750000
vt 0.625000 1.000000
vt 0.375000 1.000000
vt 0.125000 0.750000
vt 0.125000 0.750000
vt 0.125000 0.750000
vt 0.125000 0.750000
vt 0.125000 0.500000
vt 0.125000 0.750000
vn 0.0000 0.0000 1.0000
vn 1.0000 0.0000 0.0000
vn 0.0000 0.0000 -1.0000
vn -1.0000 0.0000 0.0000
vn -0.7071 0.0000 0.7071
vn -0.7071 0.0000 -0.7071
vn 0.7071 0.0000 -0.7071
vn 0.7071 0.0000 0.7071
vn 0.0000 -1.0000 -0.0000
vn 0.0000 1.0000 -0.0000
vn -0.6260 0.0000 0.7798
vn 0.7642 0.0000 0.6450
vn -0.7642 0.0000 -0.6450
vn -0.7642 0.0000 0.6450
vn 0.7642 0.0000 -0.6450
vn 0.6260 0.0000 0.7798
usemtl None
s off
f 10/1/1 24/2/1 17/3/1 1/4/1
f 14/5/2 22/6/2 23/7/2 9/8/2
f 4/9/3 11/10/3 32/11/3 25/12/3
f 2/13/4 18/14/4 19/15/4 5/16/4
f 6/17/3 20/18/3 21/19/3 13/20/3
f 1/21/5 17/22/5 18/14/5 2/13/5
f 20/18/6 6/17/6 5/16/6 19/15/6
f 22/6/7 14/5/7 13/20/7 21/19/7
f 24/2/8 10/1/8 9/8/8 23/7/8
f 5/23/9 6/24/9 13/25/9 14/5/9 9/8/9 10/26/9 1/27/9 2/28/9
f 4/9/10 3/29/10 18/30/10 17/31/10
f 8/32/10 7/33/10 20/34/10 19/35/10
f 16/36/10 15/37/10 22/6/10 21/38/10
f 12/39/10 11/10/10 24/40/10 23/7/10
f 3/29/10 8/32/10 19/35/10 18/30/10
f 11/10/10 4/9/10 17/31/10 24/40/10
f 15/37/10 12/39/10 23/7/10 22/6/10
f 7/33/10 16/36/10 21/38/10 20/34/10
f 30/41/10 29/42/10 28/43/10 27/44/10 26/45/10 25/12/10 32/11/10 31/46/10
f 11/10/6 12/39/6 31/46/6 32/11/6
f 7/33/8 8/32/8 27/44/8 28/43/8
f 12/39/4 15/37/4 30/41/4 31/46/4
f 8/32/2 3/29/2 26/45/2 27/44/2
f 15/37/5 16/36/5 29/42/5 30/41/5
f 3/29/7 4/9/7 25/12/7 26/45/7
f 16/36/1 7/33/1 28/43/1 29/42/1
f 33/47/4 34/48/4 36/49/4 35/50/4
f 57/51/3 58/52/3 40/53/3 39/54/3
f 39/54/2 40/53/2 38/55/2 37/56/2
f 59/57/9 37/56/9 44/58/9 61/59/9
f 57/60/9 39/54/9 37/56/9 59/57/9
f 58/61/10 36/62/10 34/63/10 60/64/10
f 62/65/10 42/66/10 46/67/10 64/68/10
f 60/64/10 34/63/10 42/66/10 62/65/10
f 37/56/2 38/55/2 43/69/2 44/58/2
f 34/48/4 33/47/4 41/70/4 42/71/4
f 63/72/11 64/73/11 46/74/11 45/75/11
f 48/76/9 44/58/9 52/77/9 56/78/9
f 61/59/9 44/58/9 48/76/9 63/79/9
f 47/80/12 48/76/12 56/78/12 55/81/12
f 52/77/2 51/82/2 55/81/2 56/78/2
f 50/83/4 49/84/4 53/85/4 54/86/4
f 46/67/10 42/66/10 50/87/10 54/88/10
f 44/58/13 43/69/13 51/82/13 52/77/13
f 45/75/14 46/74/14 54/89/14 53/90/14
f 41/91/9 45/92/9 53/93/9 49/94/9
f 43/69/10 47/80/10 55/81/10 51/82/10
f 42/71/15 41/70/15 49/84/15 50/83/15
f 41/91/9 61/59/9 63/79/9 45/92/9
f 48/76/16 47/80/16 64/73/16 63/72/16
f 38/55/10 60/64/10 62/65/10 43/69/10
f 43/69/10 62/65/10 64/68/10 47/80/10
f 40/53/10 58/61/10 60/64/10 38/55/10
f 35/95/9 57/60/9 59/57/9 33/96/9
f 33/96/9 59/57/9 61/59/9 41/91/9
f 35/50/3 36/49/3 58/52/3 57/51/3
