# Blender v2.90.1 OBJ File: ''
# www.blender.org
mtllib Inventory.mtl
o Cube_Cube.010
v -1.000000 -0.300000 0.859486
v -1.000000 -0.300000 -0.859486
v 0.859486 -0.300000 1.000000
v -0.859486 -0.300000 1.000000
v 1.000000 -0.300000 -0.859486
v 1.000000 -0.300000 0.859486
v -0.859486 -0.300000 -1.000000
v 0.859486 -0.300000 -1.000000
v 1.200000 -0.300000 0.859486
v 1.200000 -0.300000 -0.859486
v 3.059486 -0.300000 1.000000
v 1.340514 -0.300000 1.000000
v 3.200000 -0.300000 -0.859486
v 3.200000 -0.300000 0.859486
v 1.340514 -0.300000 -1.000000
v 3.059486 -0.300000 -1.000000
v -3.200000 -0.300000 0.859486
v -3.200000 -0.300000 -0.859486
v -1.340514 -0.300000 1.000000
v -3.059486 -0.300000 1.000000
v -1.200000 -0.300000 -0.859486
v -1.200000 -0.300000 0.859486
v -3.059486 -0.300000 -1.000000
v -1.340514 -0.300000 -1.000000
v -1.000000 -0.300000 -1.340514
v -1.000000 -0.300000 -3.059486
v 0.859486 -0.300000 -1.200000
v -0.859486 -0.300000 -1.200000
v 1.000000 -0.300000 -3.059486
v 1.000000 -0.300000 -1.340514
v -0.859486 -0.300000 -3.200000
v 0.859486 -0.300000 -3.200000
v 1.200000 -0.300000 -1.340514
v 1.200000 -0.300000 -3.059486
v 3.059486 -0.300000 -1.200000
v 1.340514 -0.300000 -1.200000
v 3.200000 -0.300000 -3.059486
v 3.200000 -0.300000 -1.340514
v 1.340514 -0.300000 -3.200000
v 3.059486 -0.300000 -3.200000
v -3.200000 -0.300000 -1.340514
v -3.200000 -0.300000 -3.059486
v -1.340514 -0.300000 -1.200000
v -3.059486 -0.300000 -1.200000
v -1.200000 -0.300000 -3.059486
v -1.200000 -0.300000 -1.340514
v -3.059486 -0.300000 -3.200000
v -1.340514 -0.300000 -3.200000
v -1.000000 -0.300000 3.059486
v -1.000000 -0.300000 1.340514
v 0.859486 -0.300000 3.200000
v -0.859486 -0.300000 3.200000
v 1.000000 -0.300000 1.340514
v 1.000000 -0.300000 3.059486
v -0.859486 -0.300000 1.200000
v 0.859486 -0.300000 1.200000
v 1.200000 -0.300000 3.059486
v 1.200000 -0.300000 1.340514
v 3.059486 -0.300000 3.200000
v 1.340514 -0.300000 3.200000
v 3.200000 -0.300000 1.340514
v 3.200000 -0.300000 3.059486
v 1.340514 -0.300000 1.200000
v 3.059486 -0.300000 1.200000
v -3.200000 -0.300000 3.059486
v -3.200000 -0.300000 1.340514
v -1.340514 -0.300000 3.200000
v -3.059486 -0.300000 3.200000
v -1.200000 -0.300000 1.340514
v -1.200000 -0.300000 3.059486
v -3.059486 -0.300000 1.200000
v -1.340514 -0.300000 1.200000
v -3.045869 -0.500000 3.500000
v -3.500000 -0.500000 3.045869
v -3.500000 0.100000 3.045869
v -3.045869 0.100000 3.500000
v -3.500000 -0.500000 -3.045869
v -3.045869 -0.500000 -3.500000
v -3.045869 0.100000 -3.500000
v -3.500000 0.100000 -3.045869
v 3.500000 -0.500000 3.045869
v 3.045869 -0.500000 3.500000
v 3.045869 0.100000 3.500000
v 3.500000 0.100000 3.045869
v 3.045869 -0.500000 -3.500000
v 3.500000 -0.500000 -3.045869
v 3.500000 0.100000 -3.045869
v 3.045869 0.100000 -3.500000
v 3.059486 0.100000 -3.200000
v 3.200000 0.100000 -3.059486
v 1.340514 0.100000 -3.200000
v 1.000000 0.100000 -3.059486
v -3.059486 0.100000 -3.200000
v -3.200000 0.100000 -3.059486
v -1.340514 0.100000 -3.200000
v 3.200000 0.100000 -1.340514
v 1.200000 0.100000 -3.059486
v 1.200000 0.100000 -1.340514
v 0.859486 0.100000 -3.200000
v 1.000000 0.100000 -1.340514
v -0.859486 0.100000 -3.200000
v -1.000000 0.100000 -3.059486
v -1.000000 0.100000 -1.340514
v -1.200000 0.100000 -3.059486
v -1.200000 0.100000 -1.340514
v -3.200000 0.100000 -1.340514
v -3.200000 0.100000 -2.784794
v 3.059486 0.100000 -1.200000
v 1.340514 0.100000 -1.200000
v 1.340514 0.100000 -1.000000
v 3.059486 0.100000 -1.000000
v 0.859486 0.100000 -1.200000
v 1.000000 0.100000 -0.859486
v 0.859486 0.100000 -1.000000
v -0.859486 0.100000 -1.000000
v -0.859486 0.100000 -1.200000
v -1.000000 0.100000 -0.859486
v -1.340514 0.100000 -1.200000
v -3.059486 0.100000 -1.000000
v -1.340514 0.100000 -1.000000
v -3.059486 0.100000 -1.200000
v 3.200000 0.100000 -0.859486
v 3.200000 0.100000 0.859486
v 3.059486 0.100000 1.000000
v 1.200000 0.100000 -0.859486
v 1.200000 0.100000 0.859486
v 1.340514 0.100000 1.000000
v 1.000000 0.100000 0.859486
v -0.859486 0.100000 1.000000
v -1.000000 0.100000 0.859486
v -1.200000 0.100000 -0.859486
v -1.200000 0.100000 0.859486
v -3.200000 0.100000 -0.859486
v -3.200000 0.100000 0.859486
v -3.059486 0.100000 1.000000
v 3.059486 0.100000 1.200000
v 3.200000 0.100000 1.340514
v 1.200000 0.100000 1.340514
v 1.340514 0.100000 1.200000
v 0.859486 0.100000 1.000000
v 1.000000 0.100000 1.340514
v 0.859486 0.100000 1.200000
v -0.859486 0.100000 1.200000
v -1.000000 0.100000 1.340514
v -1.340514 0.100000 1.000000
v -1.200000 0.100000 1.340514
v -1.340514 0.100000 1.200000
v -3.059486 0.100000 1.200000
v -1.200000 0.100000 3.059486
v -3.200000 0.100000 1.340514
v 3.200000 0.100000 3.059486
v 3.059486 0.100000 3.200000
v 1.340514 0.100000 3.200000
v 1.000000 0.100000 3.059486
v 1.200000 0.100000 3.059486
v 0.859486 0.100000 3.200000
v -0.859486 0.100000 3.200000
v -1.000000 0.100000 3.059486
v -1.340514 0.100000 3.200000
v -3.059486 0.100000 3.200000
v -3.200000 0.100000 3.059486
vt 0.375000 0.017564
vt 0.375000 0.232436
vt 0.541667 0.232436
vt 0.541667 0.017564
vt 0.375000 0.767564
vt 0.375000 0.982436
vt 0.541667 0.982436
vt 0.541667 0.767564
vt 0.375000 0.517564
vt 0.375000 0.732436
vt 0.541667 0.732436
vt 0.541667 0.517564
vt 0.375000 0.000000
vt 0.541667 0.000000
vt 0.375000 0.267564
vt 0.375000 0.482436
vt 0.541667 0.482436
vt 0.541667 0.267564
vt 0.375000 0.017564
vt 0.375000 0.232436
vt 0.541667 0.232436
vt 0.541667 0.017564
vt 0.375000 0.767564
vt 0.375000 0.982436
vt 0.541667 0.982436
vt 0.541667 0.767564
vt 0.375000 0.517564
vt 0.375000 0.732436
vt 0.541667 0.732436
vt 0.541667 0.517564
vt 0.375000 0.000000
vt 0.541667 0.000000
vt 0.375000 0.267564
vt 0.375000 0.482436
vt 0.541667 0.482436
vt 0.541667 0.267564
vt 0.375000 0.017564
vt 0.375000 0.232436
vt 0.541667 0.232436
vt 0.541667 0.017564
vt 0.375000 0.767564
vt 0.375000 0.982436
vt 0.541667 0.982436
vt 0.541667 0.767564
vt 0.375000 0.517564
vt 0.375000 0.732436
vt 0.541667 0.732436
vt 0.541667 0.517564
vt 0.375000 0.000000
vt 0.541667 0.000000
vt 0.375000 0.267564
vt 0.375000 0.482436
vt 0.541667 0.482436
vt 0.541667 0.267564
vt 0.375000 0.017564
vt 0.375000 0.232436
vt 0.541667 0.232436
vt 0.541667 0.017564
vt 0.375000 0.767564
vt 0.375000 0.982436
vt 0.541667 0.982436
vt 0.541667 0.767564
vt 0.375000 0.517564
vt 0.375000 0.732436
vt 0.541667 0.732436
vt 0.541667 0.517564
vt 0.375000 0.000000
vt 0.541667 0.000000
vt 0.375000 0.267564
vt 0.375000 0.482436
vt 0.541667 0.482436
vt 0.541667 0.267564
vt 0.375000 0.017564
vt 0.375000 0.232436
vt 0.541667 0.232436
vt 0.541667 0.017564
vt 0.375000 0.767564
vt 0.375000 0.982436
vt 0.541667 0.982436
vt 0.541667 0.767564
vt 0.375000 0.517564
vt 0.375000 0.732436
vt 0.541667 0.732436
vt 0.541667 0.517564
vt 0.375000 0.000000
vt 0.541667 0.000000
vt 0.375000 0.267564
vt 0.375000 0.482436
vt 0.541667 0.482436
vt 0.541667 0.267564
vt 0.375000 0.017564
vt 0.375000 0.232436
vt 0.541667 0.232436
vt 0.541667 0.198099
vt 0.541667 0.017564
vt 0.375000 0.767564
vt 0.375000 0.982436
vt 0.541667 0.982436
vt 0.541667 0.767564
vt 0.375000 0.517564
vt 0.375000 0.732436
vt 0.541667 0.732436
vt 0.541667 0.517564
vt 0.375000 0.000000
vt 0.541667 0.000000
vt 0.375000 0.267564
vt 0.375000 0.482436
vt 0.541667 0.482436
vt 0.541667 0.267564
vt 0.375000 0.017564
vt 0.375000 0.232436
vt 0.541667 0.232436
vt 0.541667 0.017564
vt 0.375000 0.767564
vt 0.375000 0.982436
vt 0.541667 0.982436
vt 0.541667 0.767564
vt 0.375000 0.517564
vt 0.375000 0.732436
vt 0.541667 0.732436
vt 0.541667 0.517564
vt 0.375000 0.000000
vt 0.541667 0.000000
vt 0.375000 0.267564
vt 0.375000 0.482436
vt 0.541667 0.482436
vt 0.541667 0.267564
vt 0.375000 0.017564
vt 0.375000 0.232436
vt 0.541667 0.232436
vt 0.541667 0.017564
vt 0.375000 0.767564
vt 0.375000 0.982436
vt 0.541667 0.982436
vt 0.541667 0.767564
vt 0.375000 0.517564
vt 0.375000 0.732436
vt 0.541667 0.732436
vt 0.541667 0.517564
vt 0.375000 0.000000
vt 0.541667 0.000000
vt 0.375000 0.267564
vt 0.375000 0.482436
vt 0.541667 0.482436
vt 0.541667 0.267564
vt 0.375000 0.017564
vt 0.375000 0.232436
vt 0.541667 0.232436
vt 0.541667 0.017564
vt 0.375000 0.767564
vt 0.375000 0.982436
vt 0.541667 0.982436
vt 0.541667 0.767564
vt 0.375000 0.517564
vt 0.375000 0.732436
vt 0.541667 0.732436
vt 0.541667 0.517564
vt 0.375000 0.000000
vt 0.541667 0.000000
vt 0.375000 0.267564
vt 0.375000 0.482436
vt 0.541667 0.482436
vt 0.541667 0.267564
vt 0.375000 0.766219
vt 0.625000 0.766219
vt 0.625000 0.983781
vt 0.375000 0.983781
vt 0.375000 0.516219
vt 0.625000 0.516219
vt 0.625000 0.733781
vt 0.375000 0.733781
vt 0.635714 0.594304
vt 0.635714 0.655696
vt 0.640733 0.660714
vt 0.702124 0.660714
vt 0.707143 0.655696
vt 0.707143 0.594304
vt 0.714286 0.594304
vt 0.714286 0.655696
vt 0.719304 0.660714
vt 0.780696 0.660714
vt 0.785714 0.655696
vt 0.785714 0.594304
vt 0.792857 0.594304
vt 0.792857 0.655696
vt 0.797876 0.660714
vt 0.859267 0.660714
vt 0.864286 0.655696
vt 0.875000 0.733781
vt 0.864286 0.734267
vt 0.864286 0.672875
vt 0.859267 0.667857
vt 0.797875 0.667857
vt 0.792857 0.672876
vt 0.785714 0.672875
vt 0.780696 0.667857
vt 0.719304 0.667857
vt 0.714286 0.672876
vt 0.707143 0.672876
vt 0.702125 0.667857
vt 0.640733 0.667857
vt 0.635714 0.672876
vt 0.375000 0.016219
vt 0.625000 0.016219
vt 0.625000 0.233781
vt 0.375000 0.233781
vt 0.375000 0.266219
vt 0.625000 0.266219
vt 0.625000 0.483781
vt 0.375000 0.483781
vt 0.375000 0.000000
vt 0.625000 0.000000
vt 0.125000 0.516219
vt 0.141219 0.500000
vt 0.358781 0.500000
vt 0.358781 0.750000
vt 0.141219 0.750000
vt 0.125000 0.733781
vt 0.635714 0.734267
vt 0.640733 0.739286
vt 0.702125 0.739286
vt 0.707143 0.734267
vt 0.714286 0.734267
vt 0.719304 0.739286
vt 0.780696 0.739286
vt 0.785714 0.734267
vt 0.792857 0.734267
vt 0.797875 0.739286
vt 0.859267 0.739286
vt 0.858781 0.750000
vt 0.641219 0.750000
vt 0.864286 0.594304
vt 0.859267 0.589286
vt 0.797875 0.589286
vt 0.780696 0.589286
vt 0.719304 0.589286
vt 0.702124 0.589286
vt 0.640733 0.589286
vt 0.635714 0.515733
vt 0.635714 0.577125
vt 0.640733 0.582143
vt 0.702124 0.582143
vt 0.707143 0.577124
vt 0.707143 0.515733
vt 0.714286 0.515733
vt 0.714286 0.577124
vt 0.719304 0.582143
vt 0.780696 0.582143
vt 0.785714 0.577125
vt 0.785714 0.515733
vt 0.792857 0.515733
vt 0.792857 0.577124
vt 0.797875 0.582143
vt 0.859267 0.582143
vt 0.864286 0.577124
vt 0.864286 0.525543
vt 0.875000 0.516219
vt 0.864286 0.515733
vt 0.859267 0.510714
vt 0.797876 0.510714
vt 0.780696 0.510714
vt 0.719304 0.510714
vt 0.702125 0.510714
vt 0.640733 0.510714
vt 0.641219 0.500000
vt 0.858781 0.500000
vt 0.125000 0.517564
vt 0.125000 0.732436
vt 0.142564 0.750000
vt 0.357436 0.750000
vt 0.357436 0.500000
vt 0.142564 0.500000
vt 0.125000 0.517564
vt 0.125000 0.732436
vt 0.142564 0.750000
vt 0.357436 0.750000
vt 0.357436 0.500000
vt 0.142564 0.500000
vt 0.125000 0.517564
vt 0.125000 0.732436
vt 0.142564 0.750000
vt 0.357436 0.750000
vt 0.357436 0.500000
vt 0.142564 0.500000
vt 0.125000 0.517564
vt 0.125000 0.732436
vt 0.142564 0.750000
vt 0.357436 0.750000
vt 0.357436 0.500000
vt 0.142564 0.500000
vt 0.125000 0.517564
vt 0.125000 0.732436
vt 0.142564 0.750000
vt 0.357436 0.750000
vt 0.357436 0.500000
vt 0.142564 0.500000
vt 0.125000 0.517564
vt 0.125000 0.732436
vt 0.142564 0.750000
vt 0.357436 0.750000
vt 0.357436 0.500000
vt 0.142564 0.500000
vt 0.125000 0.517564
vt 0.125000 0.732436
vt 0.142564 0.750000
vt 0.357436 0.750000
vt 0.357436 0.500000
vt 0.142564 0.500000
vt 0.125000 0.517564
vt 0.125000 0.732436
vt 0.142564 0.750000
vt 0.357436 0.750000
vt 0.357436 0.500000
vt 0.142564 0.500000
vt 0.125000 0.517564
vt 0.125000 0.732436
vt 0.142564 0.750000
vt 0.357436 0.750000
vt 0.357436 0.500000
vt 0.142564 0.500000
vn 1.0000 0.0000 0.0000
vn 0.0000 0.0000 -1.0000
vn -1.0000 0.0000 0.0000
vn 0.7071 0.0000 -0.7071
vn 0.0000 0.0000 1.0000
vn -0.0000 1.0000 -0.0000
vn -0.7071 0.0000 0.7071
vn -0.7071 0.0000 -0.7071
vn 0.7071 0.0000 0.7071
vn 0.0000 -1.0000 0.0000
usemtl Material.001
s off
f 1/1/1 2/2/1 117/3/1 130/4/1
f 3/5/2 4/6/2 129/7/2 140/8/2
f 5/9/3 6/10/3 128/11/3 113/12/3
f 4/13/4 1/1/4 130/4/4 129/14/4
f 7/15/5 8/16/5 114/17/5 115/18/5
f 9/19/1 10/20/1 125/21/1 126/22/1
f 11/23/2 12/24/2 127/25/2 124/26/2
f 13/27/3 14/28/3 123/29/3 122/30/3
f 12/31/4 9/19/4 126/22/4 127/32/4
f 15/33/5 16/34/5 111/35/5 110/36/5
f 17/37/1 18/38/1 133/39/1 134/40/1
f 19/41/2 20/42/2 135/43/2 145/44/2
f 21/45/3 22/46/3 132/47/3 131/48/3
f 20/49/4 17/37/4 134/40/4 135/50/4
f 23/51/5 24/52/5 120/53/5 119/54/5
f 25/55/1 26/56/1 102/57/1 103/58/1
f 27/59/2 28/60/2 116/61/2 112/62/2
f 29/63/3 30/64/3 100/65/3 92/66/3
f 28/67/4 25/55/4 103/58/4 116/68/4
f 31/69/5 32/70/5 99/71/5 101/72/5
f 33/73/1 34/74/1 97/75/1 98/76/1
f 35/77/2 36/78/2 109/79/2 108/80/2
f 37/81/3 38/82/3 96/83/3 90/84/3
f 36/85/4 33/73/4 98/76/4 109/86/4
f 39/87/5 40/88/5 89/89/5 91/90/5
f 41/91/1 42/92/1 94/93/1 107/94/1 106/95/1
f 43/96/2 44/97/2 121/98/2 118/99/2
f 45/100/3 46/101/3 105/102/3 104/103/3
f 44/104/4 41/91/4 106/95/4 121/105/4
f 47/106/5 48/107/5 95/108/5 93/109/5
f 49/110/1 50/111/1 144/112/1 158/113/1
f 51/114/2 52/115/2 157/116/2 156/117/2
f 53/118/3 54/119/3 154/120/3 141/121/3
f 52/122/4 49/110/4 158/113/4 157/123/4
f 55/124/5 56/125/5 142/126/5 143/127/5
f 57/128/1 58/129/1 138/130/1 155/131/1
f 59/132/2 60/133/2 153/134/2 152/135/2
f 61/136/3 62/137/3 151/138/3 137/139/3
f 60/140/4 57/128/4 155/131/4 153/141/4
f 63/142/5 64/143/5 136/144/5 139/145/5
f 65/146/1 66/147/1 150/148/1 161/149/1
f 67/150/2 68/151/2 160/152/2 159/153/2
f 69/154/3 70/155/3 149/156/3 146/157/3
f 68/158/4 65/146/4 161/149/4 160/159/4
f 71/160/5 72/161/5 147/162/5 148/163/5
f 82/164/5 83/165/5 76/166/5 73/167/5
f 86/168/1 87/169/1 84/170/1 81/171/1
f 87/169/6 122/172/6 123/173/6 124/174/6 127/175/6 126/176/6 125/177/6 113/178/6 128/179/6 140/180/6 129/181/6 130/182/6 117/183/6 131/184/6 132/185/6 145/186/6 135/187/6 134/188/6 75/189/6 161/190/6 150/191/6 148/192/6 147/193/6 146/194/6 144/195/6 143/196/6 142/197/6 141/198/6 138/199/6 139/200/6 136/201/6 137/202/6 84/170/6
f 74/203/3 75/204/3 80/205/3 77/206/3
f 78/207/2 79/208/2 88/209/2 85/210/2
f 73/211/7 76/212/7 75/204/7 74/203/7
f 79/208/8 78/207/8 77/206/8 80/205/8
f 87/169/4 86/168/4 85/210/4 88/209/4
f 83/165/9 82/164/9 81/171/9 84/170/9
f 77/213/10 78/214/10 85/215/10 86/168/10 81/171/10 82/216/10 73/217/10 74/218/10
f 149/156/8 70/155/8 67/150/8 159/153/8
f 97/75/9 34/74/9 39/87/9 91/90/9
f 123/29/8 14/28/8 11/23/8 124/26/8
f 154/120/8 54/119/8 51/114/8 156/117/8
f 150/148/9 66/147/9 71/160/9 148/163/9
f 151/138/8 62/137/8 59/132/8 152/135/8
f 96/83/8 38/82/8 35/77/8 108/80/8
f 132/47/8 22/46/8 19/41/8 145/44/8
f 144/112/9 50/111/9 55/124/9 143/127/9
f 125/21/9 10/20/9 15/33/9 110/36/9
f 95/108/7 48/107/7 45/100/7 104/103/7
f 136/144/7 64/143/7 61/136/7 137/139/7
f 105/102/8 46/101/8 43/96/8 118/99/8
f 94/93/9 42/92/9 47/106/9 93/109/9
f 138/130/9 58/129/9 63/142/9 139/145/9
f 102/57/9 26/56/9 31/69/9 101/72/9
f 142/126/7 56/125/7 53/118/7 141/121/7
f 120/53/7 24/52/7 21/45/7 131/48/7
f 128/11/8 6/10/8 3/5/8 140/8/8
f 117/3/9 2/2/9 7/15/9 115/18/9
f 114/17/7 8/16/7 5/9/7 113/12/7
f 111/35/7 16/34/7 13/27/7 122/30/7
f 84/170/6 137/202/6 151/219/6 152/220/6 153/221/6 155/222/6 138/199/6 141/198/6 154/223/6 156/224/6 157/225/6 158/226/6 144/195/6 146/194/6 149/227/6 159/228/6 160/229/6 161/190/6 75/189/6 76/230/6 83/231/6
f 75/189/6 134/188/6 133/232/6 119/233/6 120/234/6 131/184/6 117/183/6 115/235/6 114/236/6 113/178/6 125/177/6 110/237/6 111/238/6 122/172/6 87/169/6 90/239/6 96/240/6 108/241/6 109/242/6 98/243/6 97/244/6 92/245/6 100/246/6 112/247/6 116/248/6 103/249/6 102/250/6 104/251/6 105/252/6 118/253/6 121/254/6 106/255/6 107/256/6 80/257/6
f 80/257/6 107/256/6 94/258/6 93/259/6 95/260/6 104/251/6 102/250/6 101/261/6 99/262/6 92/245/6 97/244/6 91/263/6 89/264/6 90/239/6 87/169/6 88/265/6 79/266/6
f 147/162/7 72/161/7 69/154/7 146/157/7
f 99/71/7 32/70/7 29/63/7 92/66/7
f 100/65/8 30/64/8 27/59/8 112/62/8
f 89/89/7 40/88/7 37/81/7 90/84/7
f 133/39/9 18/38/9 23/51/9 119/54/9
usemtl Material.002
f 2/267/6 1/268/6 4/269/6 3/270/6 6/10/6 5/9/6 8/271/6 7/272/6
f 10/273/6 9/274/6 12/275/6 11/276/6 14/28/6 13/27/6 16/277/6 15/278/6
f 18/279/6 17/280/6 20/281/6 19/282/6 22/46/6 21/45/6 24/283/6 23/284/6
f 26/285/6 25/286/6 28/287/6 27/288/6 30/64/6 29/63/6 32/289/6 31/290/6
f 34/291/6 33/292/6 36/293/6 35/294/6 38/82/6 37/81/6 40/295/6 39/296/6
f 42/297/6 41/298/6 44/299/6 43/300/6 46/101/6 45/100/6 48/301/6 47/302/6
f 50/303/6 49/304/6 52/305/6 51/306/6 54/119/6 53/118/6 56/307/6 55/308/6
f 58/309/6 57/310/6 60/311/6 59/312/6 62/137/6 61/136/6 64/313/6 63/314/6
f 66/315/6 65/316/6 68/317/6 67/318/6 70/155/6 69/154/6 72/319/6 71/320/6
