# Blender v2.90.1 OBJ File: ''
# www.blender.org
mtllib InventoryButton.mtl
o Cube.001
v -0.859486 0.300000 0.859486
v 0.858530 0.300000 0.859486
v 0.860692 0.300000 -0.831383
v -1.000000 -0.300000 0.859486
v -1.000000 0.159486 0.859486
v -1.000000 0.159486 -0.859486
v -1.000000 -0.300000 -0.859486
v 0.859486 -0.300000 1.000000
v 0.859486 0.159486 1.000000
v -0.859486 0.159486 1.000000
v -0.859486 -0.300000 1.000000
v -0.859486 0.300000 -0.832464
v 1.000000 -0.300000 -0.859486
v 1.000000 0.159486 -0.859486
v 1.000000 0.159486 0.859486
v 1.000000 -0.300000 0.859486
v -0.859486 -0.300000 -1.000000
v 0.859486 -0.300000 -1.000000
v 0.859486 0.159486 -1.000000
v -0.859486 0.159486 -1.000000
vt 0.375000 0.017564
vt 0.566453 0.017564
vt 0.566453 0.232436
vt 0.375000 0.232436
vt 0.375000 0.767564
vt 0.566453 0.767564
vt 0.566453 0.982436
vt 0.375000 0.982436
vt 0.375000 0.517564
vt 0.566453 0.517564
vt 0.566453 0.732436
vt 0.375000 0.732436
vt 0.125000 0.517564
vt 0.142564 0.500000
vt 0.357436 0.500000
vt 0.357436 0.750000
vt 0.142564 0.750000
vt 0.125000 0.732436
vt 0.566453 0.482436
vt 0.625000 0.489461
vt 0.566453 0.500000
vt 0.566453 0.750000
vt 0.625000 0.760809
vt 0.625000 0.767564
vt 0.566453 0.250000
vt 0.625000 0.232436
vt 0.625000 0.229058
vt 0.566453 0.000000
vt 0.625000 0.017564
vt 0.375000 0.482436
vt 0.375000 0.000000
vt 0.566453 0.267564
vt 0.375000 0.267564
vt 0.625000 0.982436
vt 0.635539 0.521077
vt 0.635809 0.732436
vt 0.625000 0.267564
vn -1.0000 -0.0000 0.0000
vn 0.0000 -0.0000 1.0000
vn 1.0000 0.0000 0.0000
vn 0.0000 -1.0000 -0.0000
vn 0.5408 0.6443 -0.5408
vn 0.5760 0.5800 0.5760
vn -0.5406 0.6446 -0.5406
vn -0.5774 0.5773 0.5774
vn 0.7071 0.0000 -0.7071
vn -0.7071 -0.0000 0.7071
vn 0.7071 -0.0000 0.7071
vn -0.7071 0.0000 -0.7071
vn 0.0000 0.7071 0.7071
vn 0.7074 0.7068 0.0004
vn -0.7071 0.7071 0.0000
vn 0.0002 0.7672 -0.6414
vn 0.0000 0.0000 -1.0000
vn -0.0000 1.0000 0.0000
usemtl Material.001
s off
f 4/1/1 5/2/1 6/3/1 7/4/1
f 8/5/2 9/6/2 10/7/2 11/8/2
f 13/9/3 14/10/3 15/11/3 16/12/3
f 7/13/4 17/14/4 18/15/4 13/9/4 16/12/4 8/16/4 11/17/4 4/18/4
f 19/19/5 3/20/5 14/21/5
f 15/22/6 2/23/6 9/24/6
f 20/25/7 6/26/7 12/27/7
f 5/2/8 10/28/8 1/29/8
f 14/10/9 13/9/9 18/30/9 19/19/9
f 11/31/10 10/28/10 5/2/10 4/1/10
f 9/6/11 8/5/11 16/12/11 15/11/11
f 20/32/12 17/33/12 7/4/12 6/3/12
f 2/23/13 1/34/13 10/7/13 9/6/13
f 3/35/14 2/36/14 15/11/14 14/10/14
f 1/29/15 12/27/15 6/3/15 5/2/15
f 12/37/16 3/20/16 19/19/16 20/32/16
f 17/33/17 20/32/17 19/19/17 18/30/17
f 1/29/18 2/36/18 3/20/18 12/27/18
o Text.002
v 0.276915 0.341571 0.207831
v 0.104680 0.341571 -0.193857
v 0.161897 0.341571 -0.193857
v 0.281586 0.341571 0.085807
v 0.400691 0.341571 -0.193857
v 0.457324 0.341571 -0.193857
v 0.288592 0.341571 0.207831
v 0.011848 0.341571 0.204328
v -0.254387 0.341571 -0.102192
v -0.254387 0.341571 0.204328
v -0.308101 0.341571 0.204328
v -0.308101 0.341571 -0.193857
v -0.262560 0.341571 -0.193857
v 0.007177 0.341571 0.114415
v 0.007177 0.341571 -0.193857
v 0.060892 0.341571 -0.193857
v 0.060892 0.341571 0.204328
v -0.452895 0.341571 0.204328
v -0.452895 0.341571 -0.193857
v -0.395678 0.341571 -0.193857
v -0.395678 0.341571 0.204328
v 0.276915 0.224802 0.207831
v 0.104680 0.224802 -0.193857
v 0.161897 0.224802 -0.193857
v 0.281586 0.224802 0.085807
v 0.400691 0.224802 -0.193857
v 0.457324 0.224802 -0.193857
v 0.288592 0.224802 0.207831
v 0.011848 0.224802 0.204328
v -0.254387 0.224802 -0.102192
v -0.254387 0.224802 0.204328
v -0.308101 0.224802 0.204328
v -0.308101 0.224802 -0.193857
v -0.262560 0.224802 -0.193857
v 0.007177 0.224802 0.114415
v 0.007177 0.224802 -0.193857
v 0.060892 0.224802 -0.193857
v 0.060892 0.224802 0.204328
v -0.452895 0.224802 0.204328
v -0.452895 0.224802 -0.193857
v -0.395678 0.224802 -0.193857
v -0.395678 0.224802 0.204328
v -0.452895 0.224802 0.204328
v -0.452895 0.341571 0.204328
v -0.452895 0.224802 -0.193857
v -0.452895 0.341571 -0.193857
v -0.395678 0.224802 -0.193857
v -0.395678 0.341571 -0.193857
v -0.395678 0.224802 0.204328
v -0.395678 0.341571 0.204328
v 0.011848 0.224802 0.204328
v 0.011848 0.341571 0.204328
v -0.254387 0.224802 -0.102192
v -0.254387 0.341571 -0.102192
v -0.254387 0.224802 0.204328
v -0.254387 0.341571 0.204328
v -0.308101 0.224802 0.204328
v -0.308101 0.341571 0.204328
v -0.308101 0.224802 -0.193857
v -0.308101 0.341571 -0.193857
v -0.262560 0.224802 -0.193857
v -0.262560 0.341571 -0.193857
v 0.007177 0.224802 0.114415
v 0.007177 0.341571 0.114415
v 0.007177 0.224802 -0.193857
v 0.007177 0.341571 -0.193857
v 0.060892 0.224802 -0.193857
v 0.060892 0.341571 -0.193857
v 0.060892 0.224802 0.204328
v 0.060892 0.341571 0.204328
v 0.276915 0.224802 0.207831
v 0.276915 0.341571 0.207831
v 0.104680 0.224802 -0.193857
v 0.104680 0.341571 -0.193857
v 0.161897 0.224802 -0.193857
v 0.161897 0.341571 -0.193857
v 0.281586 0.224802 0.085807
v 0.281586 0.341571 0.085807
v 0.400691 0.224802 -0.193857
v 0.400691 0.341571 -0.193857
v 0.457324 0.224802 -0.193857
v 0.457324 0.341571 -0.193857
v 0.288592 0.224802 0.207831
v 0.288592 0.341571 0.207831
vt 0.000000 0.000000
vt 0.333333 0.000000
vt 0.166667 0.000000
vt 0.500000 0.000000
vt 0.833333 0.000000
vt 0.666667 0.000000
vt 1.000000 0.000000
vt 0.333333 0.000000
vt 0.555556 0.000000
vt 0.444444 0.000000
vt 0.111111 0.000000
vt 0.666667 0.000000
vt 0.888889 0.000000
vt 0.777778 0.000000
vt 1.000000 0.000000
vt 0.222222 0.000000
vt 0.000000 0.000000
vt 0.000000 0.000000
vt 0.666667 0.000000
vt 0.333333 0.000000
vt 1.000000 0.000000
vt 0.333333 0.000000
vt 0.000000 0.000000
vt 0.166667 0.000000
vt 0.500000 0.000000
vt 0.833333 0.000000
vt 0.666667 0.000000
vt 1.000000 0.000000
vt 0.555556 0.000000
vt 0.333333 0.000000
vt 0.444444 0.000000
vt 0.111111 0.000000
vt 0.666667 0.000000
vt 0.888889 0.000000
vt 0.777778 0.000000
vt 1.000000 0.000000
vt 0.222222 0.000000
vt 0.000000 0.000000
vt 0.666667 0.000000
vt 0.000000 0.000000
vt 0.333333 0.000000
vt 1.000000 0.000000
vt 0.000000 1.000000
vt 0.250000 1.000000
vt 0.250000 0.000000
vt 0.000000 0.000000
vt 0.500000 1.000000
vt 0.500000 0.000000
vt 0.750000 1.000000
vt 0.750000 0.000000
vt 1.000000 1.000000
vt 1.000000 0.000000
vt 0.000000 1.000000
vt 0.100000 1.000000
vt 0.100000 0.000000
vt 0.000000 0.000000
vt 0.200000 1.000000
vt 0.200000 0.000000
vt 0.300000 1.000000
vt 0.300000 0.000000
vt 0.400000 1.000000
vt 0.400000 0.000000
vt 0.500000 1.000000
vt 0.500000 0.000000
vt 0.600000 1.000000
vt 0.600000 0.000000
vt 0.700000 1.000000
vt 0.700000 0.000000
vt 0.800000 1.000000
vt 0.800000 0.000000
vt 0.900000 1.000000
vt 0.900000 0.000000
vt 1.000000 1.000000
vt 1.000000 0.000000
vt 0.000000 1.000000
vt 0.142857 1.000000
vt 0.142857 0.000000
vt 0.000000 0.000000
vt 0.285714 1.000000
vt 0.285714 0.000000
vt 0.428571 1.000000
vt 0.428571 0.000000
vt 0.571429 1.000000
vt 0.571429 0.000000
vt 0.714286 1.000000
vt 0.714286 0.000000
vt 0.857143 1.000000
vt 0.857143 0.000000
vt 1.000000 1.000000
vt 1.000000 0.000000
vn 0.0000 1.0000 0.0000
vn 0.0000 -1.0000 0.0000
vn -0.7071 0.0000 0.7071
vn -0.7071 0.0000 -0.7071
vn 0.7071 0.0000 -0.7071
vn 0.7071 0.0000 0.7071
vn -0.4149 0.0000 0.9098
vn 0.3500 0.0000 0.9367
vn 0.4132 0.0000 -0.9106
vn -0.3517 0.0000 -0.9361
vn -0.5504 0.0000 0.8349
vn -0.8349 0.0000 -0.5504
vn 0.5507 0.0000 -0.8347
vn -0.0009 0.0000 -1.0000
vn -0.5514 0.0000 -0.8342
vn 0.8328 0.0000 -0.5535
vn 0.5535 0.0000 0.8328
usemtl None
s off
f 21/38/19 23/39/19 22/40/19
f 21/38/19 24/41/19 23/39/19
f 24/41/19 26/42/19 25/43/19
f 24/41/19 27/44/19 26/42/19
f 21/38/19 27/44/19 24/41/19
f 31/45/19 33/46/19 32/47/19
f 31/45/19 29/48/19 33/46/19
f 29/48/19 34/49/19 33/46/19
f 34/49/19 36/50/19 35/51/19
f 34/49/19 37/52/19 36/50/19
f 31/45/19 30/53/19 29/48/19
f 28/54/19 34/49/19 29/48/19
f 28/54/19 37/52/19 34/49/19
f 38/55/19 40/56/19 39/57/19
f 38/55/19 41/58/19 40/56/19
f 44/59/20 42/60/20 43/61/20
f 45/62/20 42/60/20 44/59/20
f 47/63/20 45/62/20 46/64/20
f 48/65/20 45/62/20 47/63/20
f 48/65/20 42/60/20 45/62/20
f 54/66/20 52/67/20 53/68/20
f 50/69/20 52/67/20 54/66/20
f 55/70/20 50/69/20 54/66/20
f 57/71/20 55/70/20 56/72/20
f 58/73/20 55/70/20 57/71/20
f 51/74/20 52/67/20 50/69/20
f 55/70/20 49/75/20 50/69/20
f 58/73/20 49/75/20 55/70/20
f 61/76/20 59/77/20 60/78/20
f 62/79/20 59/77/20 61/76/20
s 1
f 64/80/21 66/81/22 65/82/22 63/83/21
f 66/81/22 68/84/23 67/85/23 65/82/22
f 68/84/23 70/86/24 69/87/24 67/85/23
f 70/86/24 64/88/21 63/89/21 69/87/24
f 72/90/25 74/91/26 73/92/26 71/93/25
f 74/91/26 76/94/24 75/95/24 73/92/26
f 76/94/24 78/96/21 77/97/21 75/95/24
f 78/96/21 80/98/22 79/99/22 77/97/21
f 80/98/22 82/100/27 81/101/27 79/99/22
f 82/100/27 84/102/28 83/103/28 81/101/27
f 84/102/28 86/104/22 85/105/22 83/103/28
f 86/104/22 88/106/23 87/107/23 85/105/22
f 88/106/23 90/108/24 89/109/24 87/107/23
f 90/108/24 72/110/25 71/111/25 89/109/24
f 92/112/29 94/113/30 93/114/30 91/115/29
f 94/113/30 96/116/31 95/117/31 93/114/30
f 96/116/31 98/118/32 97/119/32 95/117/31
f 98/118/32 100/120/33 99/121/33 97/119/32
f 100/120/33 102/122/34 101/123/34 99/121/33
f 102/122/34 104/124/35 103/125/35 101/123/34
f 104/124/35 92/126/29 91/127/29 103/125/35
