# Blender v2.81 (sub 16) OBJ File: 'DesertPlanetEnvironmentAssets.blend'
# www.blender.org
mtllib 2.mtl
o Cactus_2_Cylinder.001
v 0.064132 0.335061 0.478305
v 0.195142 0.489145 0.822608
v -0.022835 0.371035 0.518881
v 0.057290 0.527434 0.850010
v -0.065055 0.457886 0.528870
v -0.027178 0.619870 0.800159
v -0.037795 0.544737 0.512436
v -0.008780 0.712307 0.704371
v 0.042975 0.580712 0.479967
v 0.101705 0.750595 0.628142
v 0.129943 0.544737 0.446085
v 0.239557 0.712307 0.612126
v 0.172163 0.457886 0.436889
v 0.324025 0.619870 0.668161
v 0.144903 0.371035 0.452839
v 0.305627 0.527434 0.756019
v 0.141085 0.938089 1.081824
v 0.283751 0.924363 1.077613
v 0.044997 0.971229 0.991533
v 0.051774 1.004368 0.864248
v 0.157446 1.018095 0.774265
v 0.300111 1.004368 0.772003
v 0.396199 0.971229 0.861079
v 0.389423 0.938089 0.989579
v 0.154750 1.358225 1.129601
v 0.298022 1.358877 1.131485
v 0.057199 1.356650 1.030098
v 0.062512 1.355075 0.891212
v 0.167577 1.354423 0.795514
v 0.310849 1.355075 0.798967
v 0.408401 1.356650 0.899644
v 0.403088 1.358225 1.037356
v 0.230779 1.912070 0.957024
v 0.152730 1.767823 1.127306
v 0.296002 1.769022 1.132612
v 0.055178 1.764953 1.022253
v 0.060491 1.762113 0.879567
v 0.165557 1.760945 0.782501
v 0.308829 1.762113 0.787322
v 0.406381 1.764953 0.891799
v 0.401068 1.767823 1.035061
v 0.179314 1.859386 1.069306
v 0.273787 1.861021 1.072805
v 0.114990 1.855448 1.000034
v 0.118493 1.851519 0.905566
v 0.187772 1.849894 0.841271
v 0.282245 1.851519 0.844741
v 0.346569 1.855448 0.914014
v 0.343066 1.859386 1.008481
v 0.000000 0.817718 -0.214220
v 0.000000 0.952818 -0.568101
v 0.073117 0.847118 -0.194508
v 0.108251 0.997612 -0.516198
v 0.103404 0.920617 -0.164719
v 0.153090 1.095703 -0.417095
v 0.073117 0.999524 -0.134975
v 0.108251 1.186555 -0.330714
v 0.000000 1.034293 -0.123150
v 0.000000 1.230383 -0.296389
v -0.073117 0.999524 -0.134975
v -0.108251 1.186555 -0.330714
v -0.103404 0.920617 -0.164719
v -0.153090 1.095703 -0.417095
v -0.073117 0.847118 -0.194508
v -0.108251 0.997612 -0.516198
v 0.108251 1.459734 -0.774136
v 0.000000 1.443054 -0.839771
v 0.153090 1.500100 -0.648557
v 0.108251 1.540550 -0.535217
v -0.000000 1.557315 -0.487916
v -0.108251 1.540550 -0.535217
v -0.153090 1.500100 -0.648557
v -0.108251 1.459734 -0.774136
v 0.108251 1.950930 -0.873754
v 0.000000 1.951301 -0.939827
v 0.153090 1.950026 -0.749485
v 0.108251 1.949113 -0.632868
v 0.000000 1.948732 -0.583944
v -0.108251 1.949113 -0.632868
v -0.153090 1.950026 -0.749485
v -0.108251 1.950930 -0.873754
v -0.000000 2.471954 -0.835931
v 0.108251 2.354069 -0.937442
v 0.000000 2.355048 -0.999919
v 0.153090 2.351722 -0.814842
v 0.108251 2.349401 -0.698734
v 0.000000 2.348447 -0.650049
v -0.108251 2.349401 -0.698734
v -0.153090 2.351722 -0.814842
v -0.108251 2.354069 -0.937442
v 0.071379 2.428898 -0.912446
v 0.000000 2.430234 -0.952783
v 0.100946 2.425679 -0.829169
v 0.071379 2.422468 -0.750310
v 0.000000 2.421141 -0.717078
v -0.071379 2.422468 -0.750310
v -0.100946 2.425679 -0.829169
v -0.071379 2.428898 -0.912446
v 0.000000 -0.133347 -0.231127
v 0.000000 2.336584 0.012867
v 0.195186 -0.133347 -0.142019
v 0.195186 2.336584 0.093716
v 0.276034 -0.133347 0.053166
v 0.276034 2.336584 0.288901
v 0.195186 -0.133347 0.248352
v 0.195186 2.336584 0.484087
v -0.000000 -0.133347 0.320196
v -0.000000 2.336584 0.564935
v -0.195186 -0.133347 0.248352
v -0.195186 2.336584 0.484087
v -0.276034 -0.133347 0.053167
v -0.276034 2.336584 0.288901
v -0.195186 -0.133347 -0.142019
v -0.195186 2.336584 0.093716
v 0.129976 2.454348 0.158925
v -0.000000 2.454348 0.105088
v 0.183814 2.454348 0.288901
v 0.129976 2.454348 0.418877
v -0.000000 2.454348 0.472715
v -0.129976 2.454348 0.418877
v -0.183814 2.454348 0.288901
v -0.129976 2.454348 0.158925
v -0.000000 2.511787 0.288901
v 0.057987 2.511787 0.230914
v -0.000000 2.511787 0.206895
v 0.082006 2.511787 0.288901
v 0.057987 2.511787 0.346888
v -0.000000 2.511787 0.370908
v -0.057987 2.511787 0.346888
v -0.082006 2.511787 0.288901
v -0.057987 2.511787 0.230914
v -0.000000 -1.972408 -0.212202
v 0.000000 -1.972408 -0.464839
v 0.195186 -1.972408 -0.382707
v 0.276034 -1.972408 -0.187521
v 0.195186 -1.972408 0.007664
v -0.000000 -1.972408 0.087485
v -0.195186 -1.972408 0.007665
v -0.276034 -1.972408 -0.187521
v -0.195186 -1.972408 -0.382706
v 0.000000 1.019320 -0.031140
v 0.073117 0.981647 -0.007712
v -0.103404 0.904884 -0.005680
v 0.103404 0.904884 -0.005851
v -0.073117 0.981647 -0.007712
v 0.000000 0.804971 -0.072561
v 0.073117 0.832393 -0.029725
v -0.073117 0.832393 -0.029544
v 0.109717 0.539743 0.400624
v 0.143978 0.450509 0.374581
v 0.109717 0.361371 0.371870
v 0.027002 0.324680 0.388995
v 0.027002 0.576877 0.444368
v -0.075974 0.535311 0.413296
v -0.000000 0.564868 0.454664
v -0.122695 0.442800 0.380094
v -0.075974 0.356440 0.381873
v -0.000000 0.336812 0.398340
v -0.195186 1.152732 0.454906
v -0.276034 1.152732 0.259720
v -0.195186 1.152732 0.064535
v 0.195186 1.132633 0.062465
v 0.276034 1.132633 0.257650
v 0.195186 1.152655 0.454898
v -0.195186 0.603147 0.380136
v -0.276034 0.603147 0.184950
v -0.195186 0.603147 -0.010235
v 0.195186 0.255590 -0.070719
v 0.276034 0.255590 0.124466
v 0.195186 0.255590 0.319652
v -0.195186 0.273250 0.322854
v -0.276034 0.273250 0.127668
v -0.195186 0.273250 -0.067517
v 0.195186 0.681998 0.002427
v 0.276034 0.681998 0.197613
v 0.195186 0.681998 0.392798
v -0.000000 0.642572 0.467379
v -0.000000 0.264420 0.391259
v -0.000000 1.208891 0.541210
v 0.000000 1.141396 -0.017474
v 0.000000 0.642572 -0.091987
v 0.000000 0.264420 -0.158188
v -0.000000 1.348773 0.552571
v -0.000000 1.692603 0.564935
v -0.195186 1.348773 0.471722
v -0.195186 1.692603 0.484087
v -0.276034 1.348773 0.276537
v -0.276034 1.692603 0.288901
v -0.195186 1.692603 0.093716
v -0.195186 1.348773 0.081351
v 0.195186 1.348773 0.081351
v 0.195186 1.692603 0.093716
v 0.276034 1.348773 0.276537
v 0.276034 1.692603 0.288901
v 0.195186 1.692603 0.484087
v 0.195186 1.348773 0.471722
v 0.000000 1.348773 0.000503
v 0.000000 1.692603 0.012867
vn -0.1529 -0.8790 0.4516
vn -0.8048 -0.4374 0.4013
vn -0.9555 0.2921 -0.0410
vn -0.5131 0.6835 -0.5192
vn 0.0114 0.7000 -0.7140
vn 0.6299 0.3781 -0.6784
vn 0.5937 -0.4934 0.6357
vn 0.8929 -0.3354 -0.3003
vn 0.4531 -0.8652 0.2148
vn -0.3822 0.9213 0.0722
vn 0.8754 -0.3256 -0.3574
vn -0.8201 -0.4407 0.3650
vn 0.2934 0.9275 -0.2316
vn 0.3940 -0.9170 -0.0618
vn -0.2871 -0.9344 0.2109
vn -0.8888 0.3376 0.3101
vn 0.8071 0.4284 -0.4062
vn 0.6883 0.0506 -0.7237
vn 0.0345 -0.4966 0.8673
vn -0.9797 0.2003 0.0051
vn 0.7030 0.2258 -0.6744
vn -0.6053 0.4750 -0.6387
vn 0.9798 -0.2000 0.0001
vn -0.6752 -0.2410 0.6971
vn 0.0317 0.4749 -0.8795
vn -0.0132 0.0055 0.9999
vn -0.6716 0.0668 -0.7378
vn -0.7129 -0.0474 0.6997
vn 0.9984 -0.0374 0.0430
vn -0.0084 0.0769 -0.9970
vn -0.9987 0.0335 -0.0386
vn -0.0126 -0.1126 0.9936
vn 0.6446 -0.1149 0.7558
vn 0.6804 0.0013 0.7328
vn 0.7310 -0.0095 -0.6823
vn -0.6732 -0.0270 -0.7389
vn -0.7141 0.0099 0.7000
vn 0.9993 0.0051 0.0370
vn 0.0338 -0.0284 -0.9990
vn -0.9993 -0.0061 -0.0382
vn -0.0405 0.5377 0.8422
vn -0.6332 0.5370 0.5574
vn -0.8391 0.5414 -0.0536
vn -0.5631 0.5458 -0.6205
vn 0.0237 0.5470 -0.8368
vn 0.6028 0.5503 -0.5778
vn 0.8363 0.5478 0.0200
vn 0.5751 0.5421 0.6127
vn -0.0310 0.9103 0.4129
vn -0.3419 0.9013 0.2662
vn -0.4547 0.8890 -0.0538
vn -0.3111 0.8806 -0.3574
vn 0.0023 0.8806 -0.4739
vn 0.3093 0.8890 -0.3376
vn 0.4327 0.9013 -0.0215
vn 0.2931 0.9103 0.2925
vn 0.4267 -0.8449 -0.3226
vn 0.9317 -0.3574 -0.0654
vn 0.9148 0.2245 0.3358
vn 0.4048 0.6238 0.6687
vn -0.4048 0.6238 0.6687
vn -0.9148 0.2245 0.3358
vn -0.5269 -0.4120 -0.7434
vn -0.9317 -0.3574 -0.0654
vn -0.4267 -0.8449 -0.3226
vn 0.4221 0.8977 0.1261
vn -0.9264 -0.3748 -0.0371
vn 0.9287 -0.3693 -0.0330
vn -0.4439 0.8845 0.1439
vn -0.3918 -0.9164 -0.0818
vn 0.3909 -0.9167 -0.0825
vn 0.9293 0.3675 0.0364
vn -0.9384 0.3421 0.0481
vn -0.9362 0.0769 0.3429
vn 0.5173 -0.4171 -0.7473
vn 0.9352 0.1772 0.3067
vn -0.9368 0.1737 0.3036
vn 0.4144 0.4600 0.7853
vn -0.9486 -0.1543 -0.2764
vn 0.9446 -0.1630 -0.2849
vn -0.4306 0.4515 0.7815
vn 0.5160 -0.1337 -0.8461
vn 0.4013 0.2182 0.8896
vn 0.9377 -0.0760 -0.3389
vn -0.9462 -0.0643 -0.3172
vn -0.4186 0.2111 0.8833
vn 0.9297 0.0856 0.3581
vn 0.5129 -0.1706 -0.8413
vn -0.5298 -0.1638 -0.8322
vn -0.4949 -0.1279 -0.8595
vn -0.9309 0.0587 0.3607
vn 0.4068 0.1491 0.9013
vn 0.9391 -0.0552 -0.3392
vn -0.9374 -0.0543 -0.3439
vn -0.4045 0.1485 0.9024
vn 0.9316 0.0590 0.3587
vn 0.4391 0.4772 -0.7612
vn 0.8236 0.4971 -0.2732
vn 0.7495 0.5875 0.3049
vn 0.3116 0.6479 0.6951
vn -0.3088 0.6448 0.6992
vn -0.7489 0.5904 0.3010
vn -0.8084 0.5146 -0.2858
vn -0.4437 0.4729 -0.7613
vn 0.2033 0.9221 -0.3292
vn 0.4203 0.9001 -0.1144
vn 0.3991 0.8978 0.1862
vn 0.1637 0.9071 0.3878
vn -0.1637 0.9071 0.3878
vn -0.3991 0.8978 0.1862
vn -0.4203 0.9001 -0.1144
vn -0.2033 0.9221 -0.3292
vn 0.9234 0.0334 -0.3825
vn 0.9234 -0.0328 0.3825
vn -0.3852 -0.0747 0.9198
vn -0.9234 0.0328 -0.3825
vn -0.9234 -0.0328 0.3825
vn 0.7485 0.5862 0.3100
vn 0.3809 0.0799 -0.9212
vn -0.9227 0.0500 -0.3822
vn -0.4815 0.8534 -0.1994
vn -0.7485 0.5862 0.3100
vn 0.3100 0.5862 0.7485
vn -0.7485 0.5862 -0.3100
vn 0.7485 0.5862 -0.3100
vn -0.3100 0.5862 0.7485
vn -0.3100 0.5862 -0.7485
vn 0.3100 0.5862 -0.7485
vn -0.1994 0.8534 0.4815
vn 0.4815 0.8534 0.1994
vn 0.1994 0.8534 -0.4815
vn -0.1994 0.8534 -0.4815
vn -0.4815 0.8534 0.1994
vn 0.1994 0.8534 0.4815
vn 0.4815 0.8534 -0.1994
vn 0.0000 1.0000 0.0000
vn 0.9227 0.0500 -0.3822
vn -0.3430 -0.1179 0.9319
vn -0.4124 0.1182 -0.9033
vn 0.4125 0.1148 -0.9037
vn 0.9227 -0.0500 0.3822
vn -0.9227 -0.0500 0.3822
vn 0.3428 -0.1219 0.9314
vn 0.0000 -1.0000 0.0000
vn -0.9226 0.0520 -0.3822
vn -0.9226 -0.0520 0.3822
vn 0.9227 -0.0509 0.3822
vn 0.9227 0.0509 -0.3822
vn -0.9218 -0.0663 0.3818
vn -0.9218 0.0663 -0.3818
vn 0.9216 0.0700 -0.3817
vn 0.9216 -0.0700 0.3817
vn -0.9216 0.0699 -0.3817
vn -0.9216 -0.0699 0.3817
vn 0.9219 0.0655 -0.3819
vn 0.9219 -0.0655 0.3819
vn 0.3572 -0.1652 0.9193
vn -0.3535 -0.1600 0.9217
vn -0.3407 -0.1653 0.9255
vn 0.3404 -0.1695 0.9249
vn 0.3754 -0.1198 0.9191
vn -0.3838 -0.1245 0.9150
vn -0.9239 0.0000 -0.3827
vn -0.9239 0.0000 0.3827
vn 0.3827 0.0000 0.9239
vn 0.9239 0.0000 0.3827
vn 0.9236 -0.0334 0.3819
vn -0.3815 -0.0790 0.9210
vn 0.9239 0.0000 -0.3827
vn 0.3736 0.1251 -0.9191
vn -0.3666 0.1254 -0.9219
vn 0.4098 0.1573 -0.8985
vn -0.4103 0.1560 -0.8985
vn -0.4096 0.1645 -0.8973
vn 0.4096 0.1645 -0.8973
vn -0.1541 -0.8785 0.4522
vn -0.7736 -0.4907 0.4010
vn -0.9829 0.1836 -0.0117
vn -0.5735 0.6420 -0.5088
vn 0.0881 0.6373 -0.7656
vn 0.6958 0.2217 -0.6831
vn 0.5681 -0.4914 0.6601
vn 0.8637 -0.4268 -0.2682
vn 0.4351 -0.8732 0.2198
vn -0.3917 0.9179 0.0636
vn -0.3818 0.9215 0.0713
vn 0.8773 -0.3379 -0.3409
vn -0.8226 -0.4376 0.3631
vn 0.2934 0.9273 -0.2324
vn 0.3914 -0.9185 -0.0560
vn -0.3267 -0.9136 0.2420
vn -0.2881 -0.9341 0.2106
vn -0.8887 0.3376 0.3101
vn 0.8009 0.4331 -0.4135
vn 0.7176 0.0315 -0.6958
vn -0.0228 -0.5020 0.8646
vn -0.9796 0.2011 0.0002
vn 0.6985 0.2268 -0.6788
vn -0.6055 0.4751 -0.6385
vn 0.9800 -0.1990 -0.0042
vn -0.7074 -0.2325 0.6675
vn 0.0296 0.4744 -0.8798
vn -0.0370 -0.0029 0.9993
vn -0.6522 0.0779 -0.7540
vn -0.6943 -0.0590 0.7172
vn 0.9986 -0.0355 0.0389
vn 0.0238 0.0623 -0.9978
vn -0.9984 0.0360 -0.0438
vn 0.0174 -0.1236 0.9922
vn 0.6632 -0.1058 0.7410
vn 0.6673 0.0075 0.7448
vn 0.7182 -0.0163 -0.6956
vn -0.6785 -0.0244 -0.7342
vn -0.7328 0.0002 0.6805
vn 0.9992 0.0057 0.0385
vn 0.0242 -0.0319 -0.9992
vn -0.9993 -0.0057 -0.0371
vn -0.0356 0.5421 0.8395
vn -0.6204 0.5479 0.5612
vn -0.8326 0.5523 -0.0420
vn -0.5641 0.5486 -0.6171
vn 0.0214 0.5448 -0.8383
vn 0.6006 0.5414 -0.5884
vn 0.8436 0.5370 0.0089
vn 0.5805 0.5377 0.6115
vn 0.4904 -0.8087 -0.3248
vn 0.9310 -0.3591 -0.0658
vn 0.9345 0.1581 0.3188
vn 0.4513 0.5908 0.6688
vn -0.4513 0.5908 0.6688
vn -0.9345 0.1581 0.3188
vn -0.5173 -0.4171 -0.7473
vn -0.9310 -0.3591 -0.0658
vn -0.4904 -0.8087 -0.3248
vn 0.4439 0.8845 0.1439
vn -0.9287 -0.3693 -0.0330
vn 0.9264 -0.3748 -0.0371
vn -0.4221 0.8977 0.1261
vn -0.3909 -0.9167 -0.0825
vn 0.3917 -0.9164 -0.0819
vn 0.9384 0.3421 0.0481
vn -0.9293 0.3676 0.0364
vn -0.9297 0.0856 0.3581
vn 0.5269 -0.4120 -0.7434
vn 0.9368 0.1737 0.3036
vn -0.9352 0.1772 0.3067
vn 0.4306 0.4515 0.7815
vn -0.9446 -0.1630 -0.2849
vn 0.9486 -0.1543 -0.2764
vn -0.4144 0.4600 0.7853
vn 0.4949 -0.1279 -0.8595
vn 0.4186 0.2111 0.8833
vn 0.9462 -0.0643 -0.3172
vn -0.9377 -0.0760 -0.3389
vn -0.4013 0.2182 0.8896
vn 0.9362 0.0769 0.3429
vn 0.5298 -0.1638 -0.8322
vn -0.5129 -0.1706 -0.8413
vn -0.5160 -0.1337 -0.8461
vn -0.9316 0.0590 0.3587
vn 0.4045 0.1485 0.9024
vn 0.9374 -0.0543 -0.3439
vn -0.9391 -0.0552 -0.3392
vn -0.4068 0.1491 0.9013
vn 0.9309 0.0587 0.3607
vn 0.4436 0.4729 -0.7613
vn 0.8084 0.5146 -0.2858
vn 0.7489 0.5904 0.3010
vn 0.3088 0.6447 0.6992
vn -0.3116 0.6479 0.6951
vn -0.7495 0.5875 0.3049
vn -0.8236 0.4971 -0.2732
vn -0.4391 0.4772 -0.7612
vn 0.3827 0.0000 -0.9239
vn -0.3827 0.0000 -0.9239
vn 0.3852 -0.0747 0.9198
vn -0.3822 0.0790 -0.9207
vn 0.3814 0.0805 -0.9209
vn -0.3815 0.0798 -0.9209
vn -0.3758 -0.1203 0.9189
vn -0.3852 0.1163 -0.9155
vn 0.3851 0.1198 -0.9151
vn 0.3759 -0.1163 0.9193
vn 0.9223 -0.0506 0.3832
vn 0.3806 -0.1624 0.9103
vn 0.4089 -0.1474 0.9006
vn 0.2880 -0.0932 0.9531
vn 0.2917 -0.2235 0.9301
vn 0.3375 -0.1161 0.9342
vn 0.3926 -0.1864 0.9006
vn 0.3287 -0.1461 0.9331
vn 0.3823 -0.1562 0.9108
vn -0.3326 -0.1802 0.9257
vn -0.2342 -0.0946 0.9676
vn -0.4287 -0.1459 0.8916
vn -0.3661 -0.1990 0.9090
vn -0.3421 -0.1660 0.9249
vn -0.3465 -0.1569 0.9248
vn -0.3328 -0.1700 0.9276
vn 0.3330 -0.1658 0.9282
vn 0.3720 -0.1214 0.9203
vn -0.3724 -0.1200 0.9203
vn -0.3827 0.0000 0.9239
vn 0.3815 -0.0790 0.9210
vn 0.4084 0.1386 -0.9022
vn 0.4732 0.1046 -0.8747
vn 0.3517 0.1041 -0.9303
vn 0.3809 0.1183 -0.9170
vn 0.3794 0.1222 -0.9171
vn 0.4006 0.1313 -0.9068
vn -0.4749 0.1045 -0.8738
vn -0.4065 0.1404 -0.9028
vn -0.3789 0.1173 -0.9180
vn -0.3517 0.1041 -0.9303
vn -0.3726 0.1226 -0.9199
vn -0.3953 0.1340 -0.9087
vn 0.4047 0.1546 -0.9013
vn -0.4084 0.1574 -0.8991
vn -0.4094 0.1644 -0.8974
vn -0.9238 0.0138 -0.3826
vn -0.9238 -0.0138 0.3826
vn -0.3825 -0.0332 0.9234
vn 0.9238 -0.0138 0.3826
vn 0.9238 0.0138 -0.3826
vn 0.3825 -0.0332 0.9234
vn 0.3825 0.0332 -0.9234
vn -0.3825 0.0332 -0.9234
usemtl Material
s off
f 2//1 3//1 1//1
f 4//2 5//2 3//2
f 6//3 7//3 5//3
f 8//4 9//4 7//4
f 9//5 12//5 11//5
f 11//6 14//6 13//6
f 2//7 24//7 18//7
f 13//8 16//8 15//8
f 15//9 2//9 1//9
f 9//10 153//10 155//10
f 13//11 151//11 150//11
f 5//12 157//12 3//12
f 11//13 153//13 9//13
f 15//14 152//14 151//14
f 3//15 157//15 158//15
f 5//16 154//16 156//16
f 11//17 150//17 149//17
f 22//18 31//18 23//18
f 2//19 17//19 4//19
f 6//20 20//20 8//20
f 14//21 22//21 23//21
f 8//22 21//22 10//22
f 16//23 23//23 24//23
f 4//24 19//24 6//24
f 12//25 21//25 22//25
f 26//26 34//26 25//26
f 21//27 28//27 29//27
f 19//28 25//28 27//28
f 23//29 32//29 24//29
f 21//30 30//30 22//30
f 20//31 27//31 28//31
f 17//32 26//32 25//32
f 24//33 26//33 18//33
f 26//34 41//34 35//34
f 31//35 39//35 40//35
f 28//36 38//36 29//36
f 25//37 36//37 27//37
f 32//38 40//38 41//38
f 30//39 38//39 39//39
f 27//40 37//40 28//40
f 42//41 35//41 43//41
f 44//42 34//42 42//42
f 45//43 36//43 44//43
f 46//44 37//44 45//44
f 46//45 39//45 38//45
f 47//46 40//46 39//46
f 48//47 41//47 40//47
f 49//48 35//48 41//48
f 33//49 42//49 43//49
f 33//50 44//50 42//50
f 33//51 45//51 44//51
f 33//52 46//52 45//52
f 33//53 47//53 46//53
f 33//54 48//54 47//54
f 33//55 49//55 48//55
f 33//56 43//56 49//56
f 51//57 52//57 50//57
f 53//58 54//58 52//58
f 55//59 56//59 54//59
f 57//60 58//60 56//60
f 58//61 61//61 60//61
f 60//62 63//62 62//62
f 65//63 67//63 51//63
f 62//64 65//64 64//64
f 64//65 51//65 50//65
f 56//66 141//66 142//66
f 62//67 148//67 143//67
f 54//68 147//68 52//68
f 60//69 141//69 58//69
f 64//70 146//70 148//70
f 52//71 146//71 50//71
f 54//72 142//72 144//72
f 62//73 145//73 60//73
f 71//74 80//74 72//74
f 53//75 67//75 66//75
f 57//76 68//76 69//76
f 61//77 72//77 63//77
f 59//78 69//78 70//78
f 63//79 73//79 65//79
f 55//80 66//80 68//80
f 59//81 71//81 61//81
f 75//82 83//82 74//82
f 70//83 77//83 78//83
f 68//84 74//84 76//84
f 72//85 81//85 73//85
f 70//86 79//86 71//86
f 69//87 76//87 77//87
f 66//88 75//88 74//88
f 73//89 75//89 67//89
f 75//90 90//90 84//90
f 80//91 88//91 89//91
f 77//92 87//92 78//92
f 74//93 85//93 76//93
f 81//94 89//94 90//94
f 79//95 87//95 88//95
f 76//96 86//96 77//96
f 91//97 84//97 92//97
f 93//98 83//98 91//98
f 94//99 85//99 93//99
f 95//100 86//100 94//100
f 95//101 88//101 87//101
f 96//102 89//102 88//102
f 97//103 90//103 89//103
f 98//104 84//104 90//104
f 82//105 91//105 92//105
f 82//106 93//106 91//106
f 82//107 94//107 93//107
f 82//108 95//108 94//108
f 82//109 96//109 95//109
f 82//110 97//110 96//110
f 82//111 98//111 97//111
f 82//112 92//112 98//112
f 191//113 163//113 162//113
f 191//113 193//113 163//113
f 193//114 196//114 164//114
f 159//115 179//115 183//115
f 187//116 161//116 160//116
f 185//117 187//117 160//117
f 106//118 117//118 118//118
f 187//116 190//116 161//116
f 162//119 180//119 197//119
f 113//120 139//120 111//120
f 121//121 131//121 122//121
f 110//122 121//122 112//122
f 106//123 119//123 108//123
f 112//124 122//124 114//124
f 102//125 117//125 104//125
f 110//126 119//126 120//126
f 114//127 116//127 100//127
f 100//128 115//128 102//128
f 120//129 128//129 129//129
f 117//130 127//130 118//130
f 116//131 124//131 115//131
f 122//132 125//132 116//132
f 120//133 130//133 121//133
f 118//134 128//134 119//134
f 115//135 126//135 117//135
f 123//136 124//136 125//136
f 123//136 126//136 124//136
f 123//136 127//136 126//136
f 123//136 128//136 127//136
f 123//136 129//136 128//136
f 123//136 130//136 129//136
f 123//136 131//136 130//136
f 123//136 125//136 131//136
f 103//137 134//137 101//137
f 109//138 137//138 107//138
f 99//139 140//139 113//139
f 101//140 133//140 99//140
f 105//141 135//141 103//141
f 111//142 138//142 109//142
f 107//143 136//143 105//143
f 132//144 133//144 134//144
f 132//144 134//144 135//144
f 132//144 135//144 136//144
f 132//144 136//144 137//144
f 132//144 137//144 138//144
f 132//144 138//144 139//144
f 132//144 139//144 140//144
f 132//144 140//144 133//144
f 160//145 167//145 166//145
f 159//146 166//146 165//146
f 163//147 176//147 175//147
f 162//148 175//148 174//148
f 165//149 172//149 171//149
f 166//150 173//150 172//150
f 168//151 103//151 101//151
f 169//152 105//152 103//152
f 172//153 113//153 111//153
f 171//154 111//154 109//154
f 174//155 169//155 168//155
f 175//156 170//156 169//156
f 170//157 150//157 151//157
f 156//158 165//158 171//158
f 178//159 109//159 107//159
f 170//160 107//160 105//160
f 176//161 179//161 177//161
f 177//162 159//162 165//162
f 112//163 189//163 188//163
f 110//164 188//164 186//164
f 195//165 108//165 184//165
f 104//166 195//166 194//166
f 193//167 164//167 163//167
f 159//168 183//168 185//168
f 102//169 194//169 192//169
f 112//163 114//163 189//163
f 144//170 142//170 162//170
f 167//171 161//171 143//171
f 181//172 168//172 182//172
f 167//173 182//173 173//173
f 113//174 182//174 99//174
f 99//175 168//175 101//175
f 2//176 4//176 3//176
f 4//177 6//177 5//177
f 6//178 8//178 7//178
f 8//179 10//179 9//179
f 9//180 10//180 12//180
f 11//181 12//181 14//181
f 2//182 16//182 24//182
f 13//183 14//183 16//183
f 15//184 16//184 2//184
f 154//185 7//185 155//185
f 7//186 9//186 155//186
f 13//187 15//187 151//187
f 5//188 156//188 157//188
f 11//189 149//189 153//189
f 15//190 1//190 152//190
f 152//191 1//191 158//191
f 1//192 3//192 158//192
f 5//193 7//193 154//193
f 11//194 13//194 150//194
f 22//195 30//195 31//195
f 2//196 18//196 17//196
f 6//197 19//197 20//197
f 14//198 12//198 22//198
f 8//199 20//199 21//199
f 16//200 14//200 23//200
f 4//201 17//201 19//201
f 12//202 10//202 21//202
f 26//203 35//203 34//203
f 21//204 20//204 28//204
f 19//205 17//205 25//205
f 23//206 31//206 32//206
f 21//207 29//207 30//207
f 20//208 19//208 27//208
f 17//209 18//209 26//209
f 24//210 32//210 26//210
f 26//211 32//211 41//211
f 31//212 30//212 39//212
f 28//213 37//213 38//213
f 25//214 34//214 36//214
f 32//215 31//215 40//215
f 30//216 29//216 38//216
f 27//217 36//217 37//217
f 42//218 34//218 35//218
f 44//219 36//219 34//219
f 45//220 37//220 36//220
f 46//221 38//221 37//221
f 46//222 47//222 39//222
f 47//223 48//223 40//223
f 48//224 49//224 41//224
f 49//225 43//225 35//225
f 51//226 53//226 52//226
f 53//227 55//227 54//227
f 55//228 57//228 56//228
f 57//229 59//229 58//229
f 58//230 59//230 61//230
f 60//231 61//231 63//231
f 65//232 73//232 67//232
f 62//233 63//233 65//233
f 64//234 65//234 51//234
f 56//235 58//235 141//235
f 62//236 64//236 148//236
f 54//237 144//237 147//237
f 60//238 145//238 141//238
f 64//239 50//239 146//239
f 52//240 147//240 146//240
f 54//241 56//241 142//241
f 62//242 143//242 145//242
f 71//243 79//243 80//243
f 53//244 51//244 67//244
f 57//245 55//245 68//245
f 61//246 71//246 72//246
f 59//247 57//247 69//247
f 63//248 72//248 73//248
f 55//249 53//249 66//249
f 59//250 70//250 71//250
f 75//251 84//251 83//251
f 70//252 69//252 77//252
f 68//253 66//253 74//253
f 72//254 80//254 81//254
f 70//255 78//255 79//255
f 69//256 68//256 76//256
f 66//257 67//257 75//257
f 73//258 81//258 75//258
f 75//259 81//259 90//259
f 80//260 79//260 88//260
f 77//261 86//261 87//261
f 74//262 83//262 85//262
f 81//263 80//263 89//263
f 79//264 78//264 87//264
f 76//265 85//265 86//265
f 91//266 83//266 84//266
f 93//267 85//267 83//267
f 94//268 86//268 85//268
f 95//269 87//269 86//269
f 95//270 96//270 88//270
f 96//271 97//271 89//271
f 97//272 98//272 90//272
f 98//273 92//273 84//273
f 192//274 100//274 102//274
f 195//165 106//165 108//165
f 198//275 114//275 100//275
f 104//166 106//166 195//166
f 164//276 183//276 179//276
f 180//277 161//277 190//277
f 106//118 104//118 117//118
f 162//278 197//278 191//278
f 180//279 190//279 197//279
f 113//120 140//120 139//120
f 121//121 130//121 131//121
f 110//122 120//122 121//122
f 106//123 118//123 119//123
f 112//124 121//124 122//124
f 102//125 115//125 117//125
f 110//126 108//126 119//126
f 114//127 122//127 116//127
f 100//128 116//128 115//128
f 120//129 119//129 128//129
f 117//130 126//130 127//130
f 116//131 125//131 124//131
f 122//132 131//132 125//132
f 120//133 129//133 130//133
f 118//134 127//134 128//134
f 115//135 124//135 126//135
f 103//137 135//137 134//137
f 109//280 138//280 137//280
f 99//281 133//281 140//281
f 101//282 134//282 133//282
f 105//141 136//141 135//141
f 111//142 139//142 138//142
f 107//283 137//283 136//283
f 160//145 161//145 167//145
f 159//146 160//146 166//146
f 163//284 164//284 176//284
f 162//148 163//148 175//148
f 165//149 166//149 172//149
f 166//150 167//150 173//150
f 168//151 169//151 103//151
f 169//152 170//152 105//152
f 172//153 173//153 113//153
f 171//154 172//154 111//154
f 174//155 175//155 169//155
f 175//156 176//156 170//156
f 176//285 177//285 153//285
f 177//286 155//286 153//286
f 152//287 158//287 178//287
f 151//288 152//288 170//288
f 152//289 178//289 170//289
f 176//290 153//290 149//290
f 176//291 149//291 150//291
f 170//292 176//292 150//292
f 171//293 178//293 157//293
f 178//294 158//294 157//294
f 155//295 177//295 154//295
f 177//296 165//296 154//296
f 171//297 157//297 156//297
f 156//298 154//298 165//298
f 178//299 171//299 109//299
f 170//300 178//300 107//300
f 176//301 164//301 179//301
f 177//302 179//302 159//302
f 110//164 112//164 188//164
f 186//303 108//303 110//303
f 164//304 196//304 183//304
f 102//169 104//169 194//169
f 192//274 198//274 100//274
f 185//117 160//117 159//117
f 198//275 189//275 114//275
f 174//305 181//305 147//305
f 181//306 146//306 147//306
f 141//307 180//307 142//307
f 180//308 162//308 142//308
f 162//309 174//309 144//309
f 174//310 147//310 144//310
f 146//311 181//311 148//311
f 181//312 167//312 148//312
f 161//313 180//313 145//313
f 180//314 141//314 145//314
f 161//315 145//315 143//315
f 143//316 148//316 167//316
f 181//317 174//317 168//317
f 167//318 181//318 182//318
f 113//319 173//319 182//319
f 99//175 182//175 168//175
f 188//320 189//320 190//320 187//320
f 186//321 188//321 187//321 185//321
f 184//322 186//322 185//322 183//322
f 194//323 195//323 196//323 193//323
f 192//324 194//324 193//324 191//324
f 195//325 184//325 183//325 196//325
f 198//326 192//326 191//326 197//326
f 189//327 198//327 197//327 190//327
f 186//303 184//303 108//303
